<?xml version="1.0" encoding="UTF-8" standalone="no"?>
<!-- Created with Inkscape (http://www.inkscape.org/) -->

<svg
   xmlns:dc="http://purl.org/dc/elements/1.1/"
   xmlns:cc="http://creativecommons.org/ns#"
   xmlns:rdf="http://www.w3.org/1999/02/22-rdf-syntax-ns#"
   xmlns:svg="http://www.w3.org/2000/svg"
   xmlns="http://www.w3.org/2000/svg"
   xmlns:sodipodi="http://sodipodi.sourceforge.net/DTD/sodipodi-0.dtd"
   xmlns:inkscape="http://www.inkscape.org/namespaces/inkscape"
   width="128"
   height="128"
   viewBox="0 0 33.866666 33.866668"
   version="1.1"
   id="svg8"
   inkscape:version="0.92.4 5da689c313, 2019-01-14"
   sodipodi:docname="hangouts-gtk.svg">
  <defs
     id="defs2" />
  <sodipodi:namedview
     id="base"
     pagecolor="#ffffff"
     bordercolor="#666666"
     borderopacity="1.0"
     inkscape:pageopacity="0.0"
     inkscape:pageshadow="2"
     inkscape:zoom="4"
     inkscape:cx="-2.0199918"
     inkscape:cy="30.904307"
     inkscape:document-units="mm"
     inkscape:current-layer="layer1"
     showgrid="false"
     units="px"
     inkscape:window-width="1920"
     inkscape:window-height="1021"
     inkscape:window-x="0"
     inkscape:window-y="30"
     inkscape:window-maximized="1" />
  <metadata
     id="metadata5">
    <rdf:RDF>
      <cc:Work
         rdf:about="">
        <dc:format>image/svg+xml</dc:format>
        <dc:type
           rdf:resource="http://purl.org/dc/dcmitype/StillImage" />
        <dc:title></dc:title>
      </cc:Work>
    </rdf:RDF>
  </metadata>
  <g
     inkscape:label="Ebene 1"
     inkscape:groupmode="layer"
     id="layer1"
     transform="translate(0,-263.13332)">
    <path
       class="st0"
       d="m 31.75,277.75721 c 0,-8.07606 -6.64339,-14.62389 -14.82262,-14.62389 -8.1792286,0 -14.8107133,6.54783 -14.8107133,14.62389 0,7.65075 7.0622662,14.8335 14.8107203,14.8335 l -7e-6,4.40928 C 25.927021,292.49333 31.75,285.24124 31.75,277.75721 Z"
       id="path3872"
       style="fill:#219a53;fill-opacity:1;stroke-width:0.01075491"
       inkscape:connector-curvature="0"
       sodipodi:nodetypes="sssccs" />
    <path
       class="st2"
       d="m 18.097388,273.62024 v 6.15775 h 3.507857 v 3.46362 c 1.529344,0 2.728575,-1.92471 2.728575,-3.84834 v -5.77303 z"
       id="path3883"
       inkscape:connector-curvature="0"
       style="fill:#eeeeee;stroke-width:0.01075491" />
    <path
       class="st2"
       d="m 9.5220286,273.62024 v 6.15775 h 3.5078544 v 3.46362 c 1.529346,0 2.728574,-1.92471 2.728574,-3.84834 v -5.77303 z"
       id="path3887"
       inkscape:connector-curvature="0"
       style="fill:#eeeeee;stroke-width:0.01075491" />
    <path
       class="st3"
       d="m 9.5220286,273.62035 h 6.2364284 v 0.79375 H 9.5220286 Z m 8.5753594,0 h 6.236432 v 0.79375 h -6.236432 z"
       id="path3889"
       inkscape:connector-curvature="0"
       style="opacity:0.4;fill:#ffffff;stroke-width:0.00931354"
       sodipodi:nodetypes="cccccccccc" />
    <path
       class="st4"
       d="m 21.605245,283.24161 v 1.05838 c 1.529344,0 2.728575,-2.79073 2.728575,-4.71435 v -0.19237 c -10e-4,1.92363 -1.199231,3.84834 -2.728575,3.84834 z m 0,-3.46362 h -3.507858 l 10e-7,1.05834 h 3.507857 z m -8.575427,3.46366 v 1.05834 c 1.440591,-0.14641 2.728639,-2.86874 2.728639,-4.71435 v -0.19237 c 0,1.92363 -1.19821,3.84838 -2.728639,3.84838 z m 6.5e-5,-3.46366 H 9.5220286 v 1.05834 h 3.5078544 z"
       id="path3891"
       style="opacity:0.2;fill:#10121c;fill-opacity:1;stroke-width:0.01075491"
       inkscape:connector-curvature="0"
       sodipodi:nodetypes="ccscccccccccsccccccc" />
    <path
       class="st4"
       d="m 16.92738,291.53237 c -7.7192294,0 -14.752267,-6.26655 -14.8085485,-13.87668 0,0.0342 -0.00216,0.0674 -0.00216,0.10152 0,7.65075 7.06226,14.8335 14.8107145,14.8335 0,-0.36575 -7e-6,-0.68565 -8e-6,-1.05834 z m 14.810714,-13.77516 c -0.09958,7.41456 -5.888999,13.71733 -14.810714,18.18444 v 1.05834 c 8.999641,-4.50559 14.810714,-11.75875 14.810714,-19.24278 z"
       id="path3895"
       style="opacity:0.2;fill:#10121c;fill-opacity:1;stroke-width:0.01075491"
       inkscape:connector-curvature="0"
       sodipodi:nodetypes="ccscccccc" />
  </g>
</svg>
